<?xml version="1.0" encoding="UTF-8" standalone="no"?>
<svg
   xmlns:dc="http://purl.org/dc/elements/1.1/"
   xmlns:cc="http://creativecommons.org/ns#"
   xmlns:rdf="http://www.w3.org/1999/02/22-rdf-syntax-ns#"
   xmlns:svg="http://www.w3.org/2000/svg"
   xmlns="http://www.w3.org/2000/svg"
   xmlns:xlink="http://www.w3.org/1999/xlink"
   xmlns:sodipodi="http://sodipodi.sourceforge.net/DTD/sodipodi-0.dtd"
   xmlns:inkscape="http://www.inkscape.org/namespaces/inkscape"
   sodipodi:docname="ego-logo.inkscape.svg"
   inkscape:version="1.0 (4035a4fb49, 2020-05-01)"
   id="svg8"
   version="1.1"
   viewBox="0 0 50 50.000002"
   height="5cm"
   width="5cm">
  <defs
     id="defs2">
    <linearGradient
       id="linearGradient1605"
       inkscape:collect="always">
      <stop
         id="stop1601"
         offset="0"
         style="stop-color:#ffffff;stop-opacity:1" />
      <stop
         style="stop-color:#ffffff;stop-opacity:1"
         offset="0.48299214"
         id="stop1611" />
      <stop
         id="stop1603"
         offset="1"
         style="stop-color:#aeaeae;stop-opacity:1" />
    </linearGradient>
    <linearGradient
       id="linearGradient1526"
       inkscape:collect="always">
      <stop
         id="stop1522"
         offset="0"
         style="stop-color:#000000;stop-opacity:1" />
      <stop
         id="stop1524"
         offset="1"
         style="stop-color:#183166;stop-opacity:0.77254903" />
    </linearGradient>
    <marker
       inkscape:isstock="true"
       style="overflow:visible"
       id="Arrow1Lstart"
       refX="0"
       refY="0"
       orient="auto"
       inkscape:stockid="Arrow1Lstart">
      <path
         transform="matrix(0.8,0,0,0.8,10,0)"
         style="fill:#ffffff;fill-opacity:1;fill-rule:evenodd;stroke:#ffffff;stroke-width:1pt;stroke-opacity:1"
         d="M 0,0 5,-5 -12.5,0 5,5 Z"
         id="path894" />
    </marker>
    <linearGradient
       gradientUnits="userSpaceOnUse"
       y2="33.340717"
       x2="31.716402"
       y1="12.041759"
       x1="12.593822"
       id="linearGradient1544"
       xlink:href="#linearGradient1526"
       inkscape:collect="always" />
    <radialGradient
       r="9.8883228"
       fy="22.525873"
       fx="22.02282"
       cy="22.525873"
       cx="22.02282"
       gradientTransform="matrix(-1.0057092,0,-5.2481652e-6,-1.1308057,44.171491,47.998259)"
       gradientUnits="userSpaceOnUse"
       id="radialGradient1609"
       xlink:href="#linearGradient1605"
       inkscape:collect="always" />
    <linearGradient
       y2="33.340717"
       x2="31.716402"
       y1="12.041759"
       x1="12.593822"
       gradientUnits="userSpaceOnUse"
       id="linearGradient1628"
       xlink:href="#linearGradient1526"
       inkscape:collect="always" />
    <radialGradient
       r="9.8883228"
       fy="22.525873"
       fx="22.02282"
       cy="22.525873"
       cx="22.02282"
       gradientTransform="matrix(-1.0057092,0,-5.2481652e-6,-1.1308057,44.171491,47.998259)"
       gradientUnits="userSpaceOnUse"
       id="radialGradient1630"
       xlink:href="#linearGradient1605"
       inkscape:collect="always" />
  </defs>
  <sodipodi:namedview
     inkscape:window-maximized="1"
     inkscape:window-y="-8"
     inkscape:window-x="1358"
     inkscape:window-height="1027"
     inkscape:window-width="1920"
     inkscape:snap-bbox-edge-midpoints="true"
     inkscape:bbox-nodes="true"
     inkscape:bbox-paths="true"
     inkscape:snap-bbox-midpoints="true"
     inkscape:snap-bbox="true"
     inkscape:object-nodes="true"
     inkscape:snap-nodes="true"
     inkscape:snap-midpoints="false"
     inkscape:snap-smooth-nodes="true"
     inkscape:snap-intersection-paths="false"
     inkscape:object-paths="false"
     inkscape:snap-page="true"
     inkscape:snap-text-baseline="true"
     inkscape:snap-center="true"
     inkscape:snap-object-midpoints="true"
     lock-margins="false"
     width="10in"
     units="cm"
     inkscape:pagecheckerboard="true"
     inkscape:showpageshadow="false"
     borderlayer="false"
     showgrid="false"
     inkscape:document-rotation="0"
     inkscape:current-layer="layer1"
     inkscape:document-units="mm"
     inkscape:cy="106.19224"
     inkscape:cx="53.567337"
     inkscape:zoom="2.8284271"
     inkscape:pageshadow="2"
     inkscape:pageopacity="0.0"
     borderopacity="1.0"
     bordercolor="#666666"
     pagecolor="#ffffff"
     id="base" />
  <metadata
     id="metadata5">
    <rdf:RDF>
      <cc:Work
         rdf:about="">
        <dc:format>image/svg+xml</dc:format>
        <dc:type
           rdf:resource="http://purl.org/dc/dcmitype/StillImage" />
        <dc:title></dc:title>
      </cc:Work>
    </rdf:RDF>
  </metadata>
  <g
     id="layer1"
     inkscape:groupmode="layer"
     inkscape:label="Layer 1">
    <g
       transform="matrix(1.1065282,0,0,1.1065282,0.63112916,0.07448609)"
       id="g1626">
      <g
         id="g1548">
        <circle
           r="19.980846"
           cy="22.525873"
           cx="22.02282"
           id="path833"
           style="fill:#e8e8e8;fill-opacity:1;fill-rule:evenodd;stroke-width:0.264583;stroke-linecap:round;stroke-opacity:0.913725;paint-order:stroke markers fill" />
        <circle
           r="17.660936"
           cy="22.525873"
           cx="22.02282"
           id="path1450"
           style="opacity:1;fill:#b3b3b3;fill-opacity:1;fill-rule:evenodd;stroke:none;stroke-width:0.199344;stroke-linecap:square;stroke-linejoin:round;stroke-miterlimit:4;stroke-dasharray:none;stroke-opacity:1;paint-order:markers fill stroke" />
      </g>
      <circle
         style="opacity:1;fill:url(#linearGradient1628);fill-opacity:1;fill-rule:evenodd;stroke:none;stroke-width:0.165;stroke-linecap:square;stroke-linejoin:round;stroke-miterlimit:4;stroke-dasharray:none;stroke-opacity:1;paint-order:markers fill stroke"
         id="path1452"
         cx="22.02282"
         cy="22.525873"
         r="13.860769" />
      <path
         id="path890-0-7"
         style="fill:none;fill-opacity:0.310484;fill-rule:evenodd;stroke:#ffffff;stroke-width:0.779;stroke-linecap:round;stroke-miterlimit:4;stroke-dasharray:none;stroke-opacity:1;paint-order:stroke markers fill"
         transform="scale(-1)"
         d="m -18.57053,-25.020956 a 1.0033777,1.0033777 0 0 1 -1.003378,1.003378 1.0033777,1.0033777 0 0 1 -1.003378,-1.003378 1.0033777,1.0033777 0 0 1 1.003378,-1.003378 1.0033777,1.0033777 0 0 1 1.003378,1.003378 m -3.017635,6.732389 a 1.0033777,1.0033777 0 0 1 -0.367262,-1.370639 1.0033777,1.0033777 0 0 1 1.370639,-0.367262 1.0033777,1.0033777 0 0 1 0.367261,1.370639 1.0033777,1.0033777 0 0 1 -1.370638,0.367262 m -4.321606,-5.979543 a 1.0033777,1.0033777 0 0 1 1.370639,0.367262 1.0033777,1.0033777 0 0 1 -0.367261,1.370639 1.0033777,1.0033777 0 0 1 -1.37064,-0.367261 1.0033777,1.0033777 0 0 1 0.367262,-1.37064 m 7.773899,3.484469 a 1.0033777,1.0033777 0 0 1 -1.37064,-0.367262 1.0033777,1.0033777 0 0 1 0.367262,-1.370639 1.0033777,1.0033777 0 0 1 1.370639,0.367262 1.0033777,1.0033777 0 0 1 -0.367261,1.370639 m -7.339239,0.752849 a 1.0033777,1.0033777 0 0 1 1.003378,-1.003378 1.0033777,1.0033777 0 0 1 1.003378,1.003378 1.0033777,1.0033777 0 0 1 -1.003378,1.003377 1.0033777,1.0033777 0 0 1 -1.003378,-1.003377 m 3.017632,-6.732395 a 1.0033777,1.0033777 0 0 1 0.367261,1.37064 1.0033777,1.0033777 0 0 1 -1.370639,0.367261 1.0033777,1.0033777 0 0 1 -0.367262,-1.370639 1.0033777,1.0033777 0 0 1 1.37064,-0.367262" />
      <path
         id="path1190-6-4"
         style="fill:url(#radialGradient1630);fill-opacity:1;stroke:#000000;stroke-width:0;stroke-linecap:butt;stroke-linejoin:miter;stroke-miterlimit:4;stroke-dasharray:none;stroke-opacity:1"
         d="m 20.116756,26.185229 -0.0058,0.582848 c 0,0 0.01775,0.119799 0.05573,0.186431 0.03802,0.06663 0.160368,0.147905 0.160368,0.147905 l 3.268043,1.886808 2.265625,1.308058 c 0,0 0.281319,0.170283 0.613624,0.358926 0.539225,0.306109 0.786507,0.263533 0.786507,0.263533 l -2.679494,1.525586 -1.249961,0.721666 c 0,0 -0.307316,0.18643 -0.476224,0.243499 -0.248309,0.0839 -0.511635,0.139591 -0.773735,0.140016 -0.286362,4.71e-4 -0.57682,-0.05211 -0.845853,-0.150201 -0.67242,-0.343999 -1.626024,-0.975 -2.221769,-1.363015 -0.302696,-0.234211 -0.408793,-0.343129 -0.464419,-0.554395 -0.113741,-0.431968 -0.109729,-0.998542 -0.108321,-1.020295 l 2.221474,1.346861 c 0,0 1.024225,0.649922 1.418911,0.650028 0.394686,1.06e-4 1.411129,-0.645537 1.411129,-0.645537 l 1.411132,-0.81472 -2.94003,-1.697427 -1.470016,-0.848714 c 0,0 -0.502977,-0.260331 -0.752952,-0.386474 -0.255508,-0.128943 -0.549047,-0.275419 -0.643753,-0.436863 -0.08739,-0.148966 -0.07331,-0.739686 -0.07331,-0.739686 v -0.71431 z M 19.806761,19.0455 19.304893,18.749064 c 0,0 -0.112622,-0.04453 -0.189319,-0.04495 -0.07672,-3.87e-4 -0.208274,0.06493 -0.208274,0.06493 l -3.268045,1.886805 -2.265624,1.30806 c 0,0 -0.28813,0.158488 -0.617651,0.35195 -0.534711,0.313929 -0.62148,0.549369 -0.62148,0.549369 l 0.01855,-3.083303 -1e-6,-1.443331 c 0,0 -0.0078,-0.359359 0.02724,-0.534172 0.0515,-0.25699 0.134928,-0.512884 0.26561,-0.740081 0.142774,-0.248233 0.333535,-0.473489 0.553005,-0.65743 0.634121,-0.410333 1.657386,-0.920678 2.29129,-1.2426 0.35418,-0.145038 0.501555,-0.182462 0.712329,-0.125003 0.430966,0.117482 0.919628,0.404244 0.937762,0.41634 L 14.66313,16.70607 c 0,0 -1.074962,0.562044 -1.272397,0.903799 -0.197435,0.341755 -0.146513,1.544843 -0.146513,1.544843 l 2e-6,1.629435 2.94003,-1.697427 1.470016,-0.848714 c 0,0 0.476942,-0.305425 0.711173,-0.458839 0.239421,-0.156805 0.513042,-0.337779 0.70021,-0.339075 0.172703,-0.0012 0.67724,0.306358 0.67724,0.306358 l 0.618611,0.357155 z m 6.338189,3.301403 0.507655,-0.286412 c 0,0 0.09487,-0.07527 0.133587,-0.141481 0.03869,-0.06624 0.04791,-0.212835 0.04791,-0.212835 l 2e-6,-3.773612 -1e-6,-2.616118 c 0,0 0.0068,-0.328772 0.004,-0.710877 -0.0045,-0.620037 -0.165028,-0.812902 -0.165028,-0.812902 l 2.660943,1.557717 1.249962,0.721665 c 0,0 0.315111,0.172929 0.448989,0.290673 0.196811,0.173092 0.376707,0.373293 0.508124,0.600066 0.143589,0.247762 0.243286,0.525594 0.292849,0.807631 0.0383,0.754332 -0.03136,1.895678 -0.06952,2.605615 -0.05148,0.379248 -0.09276,0.52559 -0.247909,0.679397 -0.317225,0.314487 -0.8099,0.594299 -0.829442,0.603956 l 0.05568,-2.597283 c 0,0 0.05074,-1.211966 -0.146515,-1.553827 C 30.398985,17.166414 29.33162,16.60897 29.33162,16.60897 l -1.411133,-0.814716 -1e-6,3.394855 v 1.697427 c 0,0 0.02604,0.565757 0.04178,0.845313 0.01609,0.285748 0.036,0.613198 -0.05646,0.775938 -0.08531,0.150164 -0.603934,0.433328 -0.603934,0.433328 l -0.61861,0.357155 z m -8.244256,0.357945 -0.507656,0.286413 c 0,0 -0.09487,0.07527 -0.133587,0.14148 -0.03869,0.06625 -0.04791,0.212835 -0.04791,0.212835 l -2e-6,3.773613 1e-6,2.616118 c 0,0 -0.0068,0.328771 -0.004,0.710877 0.0045,0.620037 0.165027,0.812902 0.165027,0.812902 l -2.660943,-1.557717 -1.249962,-0.721665 c 0,0 -0.315111,-0.172929 -0.448988,-0.290673 -0.196812,-0.173093 -0.376707,-0.373294 -0.508125,-0.600067 -0.143588,-0.247761 -0.243285,-0.525593 -0.292848,-0.80763 -0.0383,-0.754332 0.03136,-1.895678 0.06952,-2.605616 0.05148,-0.379248 0.09276,-0.52559 0.24791,-0.679396 0.317225,-0.314487 0.809899,-0.594299 0.829442,-0.603956 l -0.05568,2.597283 c 0,0 -0.05074,1.211966 0.146514,1.553827 0.197252,0.341861 1.264617,0.899305 1.264617,0.899305 l 1.411133,0.814716 10e-7,-3.394854 v -1.697428 c 0,0 -0.02604,-0.565756 -0.04178,-0.845313 -0.01609,-0.285747 -0.036,-0.613197 0.05646,-0.775937 0.08531,-0.150165 0.603934,-0.433329 0.603934,-0.433329 l 0.618611,-0.357155 z m 6.028192,-3.838329 0.0058,-0.582848 c 0,0 -0.01775,-0.119799 -0.05573,-0.186431 -0.03802,-0.06663 -0.160368,-0.147905 -0.160368,-0.147905 L 20.45053,16.062527 18.184905,14.754469 c 0,0 -0.28132,-0.170283 -0.613624,-0.358926 -0.539225,-0.306109 -0.786508,-0.263533 -0.786508,-0.263533 l 2.679495,-1.525586 1.249961,-0.721666 c 0,0 0.307316,-0.18643 0.476224,-0.243499 0.248308,-0.0839 0.511635,-0.139592 0.773735,-0.140016 0.286362,-4.71e-4 0.57682,0.05211 0.845853,0.150201 0.672419,0.343999 1.626023,0.975 2.221768,1.363015 0.302696,0.234211 0.408794,0.343129 0.46442,0.554395 0.113741,0.431968 0.109728,0.998542 0.10832,1.020295 l -2.221473,-1.346861 c 0,0 -1.024225,-0.649922 -1.418911,-0.650028 -0.394687,-1.06e-4 -1.41113,0.645537 -1.41113,0.645537 l -1.411131,0.814719 2.94003,1.697428 1.470015,0.848714 c 0,0 0.502977,0.260331 0.752953,0.386474 0.255508,0.128943 0.549046,0.275419 0.643753,0.436863 0.08739,0.148966 0.07331,0.739686 0.07331,0.739686 v 0.71431 z m 0.309998,7.139735 0.501868,0.296436 c 0,0 0.112622,0.04453 0.189319,0.04495 0.07672,3.87e-4 0.208274,-0.06493 0.208274,-0.06493 l 3.268045,-1.886805 2.265624,-1.30806 c 0,0 0.28813,-0.158488 0.617651,-0.35195 0.534711,-0.313929 0.62148,-0.549369 0.62148,-0.549369 l -0.01855,3.083303 1e-6,1.443331 c 0,0 0.0078,0.359359 -0.02724,0.534172 -0.0515,0.25699 -0.134928,0.512884 -0.26561,0.740081 -0.142774,0.248233 -0.333535,0.473489 -0.553005,0.65743 -0.634121,0.410333 -1.657386,0.920678 -2.29129,1.2426 -0.35418,0.145038 -0.501555,0.182462 -0.712329,0.125003 -0.430966,-0.117482 -0.919628,-0.404244 -0.937762,-0.41634 l 2.277152,-1.250422 c 0,0 1.074962,-0.562044 1.272397,-0.903799 0.197435,-0.341755 0.146513,-1.544843 0.146513,-1.544843 l -2e-6,-1.629435 -2.94003,1.697427 -1.470016,0.848714 c 0,0 -0.476942,0.305425 -0.711173,0.458839 -0.239421,0.156805 -0.513042,0.337779 -0.70021,0.339075 -0.172703,0.0012 -0.67724,-0.306358 -0.67724,-0.306358 L 23.68414,26.948149 Z" />
    </g>
  </g>
</svg>
